HIERARCHY
ROOT Hips
{
 OFFSET 0.000000 0.000000 0.000000
 CHANNELS 6 Xposition Yposition Zposition Yrotation Xrotation Zrotation
 JOINT Chest
 {
  OFFSET 0.000000 10.385163 0.011643
  CHANNELS 3 Yrotation Xrotation Zrotation
  JOINT Chest2
  {
   OFFSET 0.000000 11.579334 -0.021150
   CHANNELS 3 Yrotation Xrotation Zrotation
   JOINT Chest3
   {
    OFFSET 0.000000 10.463212 0.000000
    CHANNELS 3 Yrotation Xrotation Zrotation
    JOINT Chest4
    {
     OFFSET 0.000000 10.463212 0.000000
     CHANNELS 3 Yrotation Xrotation Zrotation
     JOINT Neck
     {
      OFFSET 0.000000 14.544862 0.000000
      CHANNELS 3 Yrotation Xrotation Zrotation
      JOINT Head
      {
       OFFSET 0.000000 9.730630 -0.050295
       CHANNELS 3 Yrotation Xrotation Zrotation
       End Site
       {
        OFFSET 0.000000 18.757589 -0.026270
       }
      }
     }
     JOINT RightCollar
     {
      OFFSET -2.985174 8.102313 0.000000
      CHANNELS 3 Yrotation Xrotation Zrotation
      JOINT RightShoulder
      {
       OFFSET -13.558590 0.000000 0.000000
       CHANNELS 3 Yrotation Xrotation Zrotation
       JOINT RightElbow
       {
        OFFSET -28.208579 0.000000 0.000000
        CHANNELS 3 Yrotation Xrotation Zrotation
        JOINT RightWrist
        {
         OFFSET -23.322907 0.000000 0.010349
         CHANNELS 3 Yrotation Xrotation Zrotation
         End Site
         {
          OFFSET -17.603338 0.000000 0.000000
         }
        }
       }
      }
     }
     JOINT LeftCollar
     {
      OFFSET 2.985174 8.102313 0.000000
      CHANNELS 3 Yrotation Xrotation Zrotation
      JOINT LeftShoulder
      {
       OFFSET 13.558590 0.000000 0.000000
       CHANNELS 3 Yrotation Xrotation Zrotation
       JOINT LeftElbow
       {
        OFFSET 28.208579 0.000000 0.000000
        CHANNELS 3 Yrotation Xrotation Zrotation
        JOINT LeftWrist
        {
         OFFSET 23.322907 0.000000 0.010349
         CHANNELS 3 Yrotation Xrotation Zrotation
         End Site
         {
          OFFSET 17.603338 0.000000 0.000000
         }
        }
       }
      }
     }
    }
   }
  }
 }
 JOINT RightHip
 {
  OFFSET -8.341224 -0.057053 -0.005822
  CHANNELS 3 Yrotation Xrotation Zrotation
  JOINT RightKnee
  {
   OFFSET 0.000000 -44.280013 0.005508
   CHANNELS 3 Yrotation Xrotation Zrotation
   JOINT RightAnkle
   {
    OFFSET 0.000000 -43.261728 0.009315
    CHANNELS 3 Yrotation Xrotation Zrotation
    JOINT RightToe
    {
     OFFSET 0.000000 -8.082955 18.257715
     CHANNELS 3 Yrotation Xrotation Zrotation
     End Site
     {
      OFFSET 0.000000 -1.634678 7.189621
     }
    }
   }
  }
 }
 JOINT LeftHip
 {
  OFFSET 8.341224 -0.057053 -0.005822
  CHANNELS 3 Yrotation Xrotation Zrotation
  JOINT LeftKnee
  {
   OFFSET 0.000000 -44.280013 0.005508
   CHANNELS 3 Yrotation Xrotation Zrotation
   JOINT LeftAnkle
   {
    OFFSET 0.000000 -43.261728 0.009315
    CHANNELS 3 Yrotation Xrotation Zrotation
    JOINT LeftToe
    {
     OFFSET 0.000000 -8.082955 18.257715
     CHANNELS 3 Yrotation Xrotation Zrotation
     End Site
     {
      OFFSET 0.000000 -1.634678 7.189621
     }
    }
   }
  }
 }
}
MOTION
Frames: 7
Frame Time: 0.016667
0.000000 95.489079 0.000000 0.000000 -5.826342 0.000000 0.000000 11.116423 0.000000 0.000000 -5.290081 0.000000 0.000000 0.000000 0.000000 0.000000 0.000000 0.000000 0.000000 12.665069 0.000000 0.000000 0.575450 0.000000 0.000000 0.000000 0.000000 0.000000 0.000000 0.000000 2.337306 0.000000 0.000000 -2.337306 0.000000 0.000000 0.000000 0.000000 0.000000 0.000000 0.000000 0.000000 -2.337306 0.000000 0.000000 2.337306 0.000000 0.000000 0.000000 8.578828 0.000000 0.000000 1.905768 0.000000 0.000000 -4.658254 0.000000 0.000000 0.000000 0.000000 0.000000 8.578828 0.000000 0.000000 1.905768 0.000000 0.000000 -4.658254 0.000000 0.000000 0.000000 0.000000
-148.937010 97.675324 -444.696517 -11.146883 -25.182553 0.295347 -1.165276 13.369700 3.224862 -0.607764 5.933959 1.456978 -0.607764 5.933959 1.456976 -0.469608 4.449057 1.097674 1.106215 12.219264 -0.575588 2.356945 -13.471785 -1.569006 -3.717703 -7.097074 6.836897 -3.276962 -3.833980 71.070749 3.199118 18.762499 -0.833039 1.634817 1.192941 0.860447 1.490536 -9.205464 -12.562525 8.408434 0.671043 -77.161335 -5.829007 25.948223 -2.524221 3.949859 0.614797 -3.510548 -8.403807 25.223840 -2.284623 -1.306258 2.989770 -0.432841 -7.305381 -4.823592 4.738773 0.000000 -0.000000 0.000000 8.173985 23.294227 5.113542 -1.318627 6.319864 1.353134 3.974150 -3.394227 -2.194947 0.000000 0.000000 -0.000000
-148.833564 97.647702 -444.664292 -11.152852 -24.932849 0.297463 -1.151367 13.259953 3.229720 -0.601047 5.885266 1.458608 -0.601047 5.885266 1.458607 -0.464481 4.412552 1.098798 1.109369 12.255465 -0.591415 2.368744 -13.404073 -1.599567 -3.707604 -7.083351 6.912075 -3.194016 -3.868506 71.089377 3.106601 18.734156 -0.906011 1.619754 1.197755 0.875812 1.475867 -9.183402 -12.580941 8.354787 0.648515 -77.223994 -5.888950 25.931776 -2.571250 3.937147 0.602073 -3.475078 -8.341232 24.963421 -2.276399 -1.387826 3.026282 -0.449002 -7.258291 -4.845447 4.804583 0.000000 0.000000 0.000000 8.214655 23.026380 4.875352 -1.388405 6.345775 1.739676 3.977192 -3.410276 -2.399320 -0.000000 0.000000 0.000000
-148.738589 97.625665 -444.631188 -11.158191 -24.702946 0.294762 -1.138570 13.163509 3.235009 -0.594918 5.842477 1.460481 -0.594918 5.842477 1.460481 -0.459809 4.380472 1.100115 1.111584 12.281337 -0.606736 2.378787 -13.355573 -1.629032 -3.694993 -7.072416 6.984401 -3.115904 -3.906251 71.108889 3.022020 18.690314 -0.974542 1.611045 1.196754 0.879273 1.456968 -9.168610 -12.597906 8.293680 0.622307 -77.286610 -5.958667 25.910161 -2.623440 3.923938 0.590101 -3.439371 -8.280347 24.727263 -2.267767 -1.463898 3.055328 -0.463455 -7.214608 -4.860829 4.868606 0.000000 -0.000000 0.000000 8.249687 22.785503 4.662301 -1.446805 6.373524 2.077977 3.974514 -3.431641 -2.576646 0.000000 -0.000000 0.000000
-148.656573 97.612490 -444.596938 -11.161510 -24.504329 0.283837 -1.127348 13.088037 3.241748 -0.589660 5.808994 1.463062 -0.589660 5.808994 1.463062 -0.455817 4.355370 1.101978 1.112422 12.291679 -0.622009 2.386578 -13.335939 -1.658245 -3.677917 -7.063408 7.052695 -3.044735 -3.952324 71.131412 2.945278 18.615471 -1.039552 1.614030 1.182138 0.862217 1.430056 -9.163367 -12.613197 8.218574 0.588372 -77.351242 -6.038450 25.879162 -2.679277 3.908938 0.578711 -3.401502 -8.219689 24.530204 -2.257190 -1.537579 3.070444 -0.475493 -7.173178 -4.863217 4.931047 -0.000000 -0.000000 0.000000 8.278192 22.586997 4.487296 -1.488818 6.403875 2.345783 3.960690 -3.460945 -2.714126 -0.000000 0.000000 0.000000
-148.583029 97.604899 -444.561810 -11.164270 -24.325515 0.268141 -1.117240 13.025866 3.248957 -0.584990 5.781415 1.465897 -0.584990 5.781415 1.465897 -0.452281 4.334694 1.104040 1.112320 12.291687 -0.636786 2.392637 -13.335527 -1.686399 -3.658300 -7.057186 7.118118 -2.978394 -4.001661 71.154789 2.876652 18.525198 -1.100100 1.623390 1.161712 0.833252 1.398909 -9.165395 -12.627015 8.136001 0.550710 -77.415744 -6.128015 25.842987 -2.740128 3.893468 0.568111 -3.363381 -8.160596 24.357400 -2.246013 -1.605781 3.078093 -0.485775 -7.135113 -4.859121 4.991710 0.000000 -0.000000 -0.000000 8.300897 22.415309 4.337610 -1.519352 6.435661 2.565395 3.941059 -3.495506 -2.824529 -0.000000 -0.000000 0.000000
-148.512971 97.598646 -444.525724 -11.170134 -24.151860 0.253171 -1.107965 12.967292 3.254149 -0.580653 5.755434 1.467872 -0.580653 5.755434 1.467872 -0.448991 4.315217 1.105462 1.111671 12.286622 -0.649209 2.396791 -13.344610 -1.709973 -3.639487 -7.059073 7.181332 -2.915440 -4.042291 71.173615 2.824516 18.450872 -1.149199 1.629421 1.153062 0.806274 1.370651 -9.175134 -12.638542 8.058130 0.517770 -77.473843 -6.236250 25.809052 -2.815501 3.880956 0.559523 -3.330562 -8.108506 24.188648 -2.237465 -1.653731 3.090122 -0.494597 -7.107203 -4.861540 5.048219 0.000000 0.000000 0.000000 8.314469 22.250681 4.200384 -1.542014 6.467145 2.755443 3.925907 -3.532468 -2.919169 0.000000 0.000000 0.000000
